# xmcd
#
# Track frame offsets: 
#        150
#        22143
#        54852
#        89061
#        153232
#        171785
#        192719
#        211000
#        250009
#
# Disc length: 3631 seconds
#
# Revision: 0
# Processed by: cddbd v1.5.2PL0 Copyright (c) Steve Scherf et al.
# Submitted via: ExactAudioCopyFreeDBPlugin 1.0
#
DISCID=740e2d09
DTITLE=Doug MacLeod - Live In Europe
DYEAR=2016
DGENRE=Blues
TTITLE0=I Want You
TTITLE1=Bad Magic
TTITLE2=Ain't The Blues Evil
TTITLE3=The New Panama Ltd.
TTITLE4=Home Cookin'
TTITLE5=Cold Rain
TTITLE6=Long Time Road
TTITLE7=Turkey Leg Woman
TTITLE8=Masters Plan
EXTD=
EXTT0=
EXTT1=
EXTT2=
EXTT3=
EXTT4=
EXTT5=
EXTT6=
EXTT7=
EXTT8=
PLAYORDER=
